<?xml version="1.0" encoding="UTF-8"?>
<!-- Created with Inkscape (http://www.inkscape.org/) -->
<svg width="47.203mm" height="43.963mm" version="1.1" viewBox="0 0 47.203 43.963" xmlns="http://www.w3.org/2000/svg">
 <g transform="translate(-93.255 -166.37)">
  <path d="m93.459 206.71 21.395-39.213c0.81813-1.4995 3.246-1.497 4.0704 0l20.983 38.107c1.7207 3.125-0.94002 4.7339-3.1646 4.7316l-40.624-0.0425c-1.8935-2e-3 -3.4311-2.1704-2.66-3.5838zm25.597-4.1192c0.35117-0.76343 0.36488-3.2179 0.0576-3.9748-0.22945-0.56513-0.12157-0.54008-2.4595-0.57127-1.6782-0.0224-1.7421-3.5e-4 -2.0407 0.70319-0.3751 0.8837-0.31201 3.236 0.10538 3.9302 0.28823 0.4794 0.29375 0.48061 2.1825 0.48061h1.8935zm-0.7044-8.6918c0.94644-0.0625 1.0102-0.52065 1.0719-7.6824l0.0536-6.2177-0.50275-0.46302c-0.7674-0.70675-3.4474-0.65986-4.1498 0l-0.49289 0.46302-2e-3 6.1769c-8.1e-4 8.0986-0.0478 7.9572 2.5639 7.7894 0.48492-0.0312 1.1413-0.0452 1.4571-0.0661z" fill="#ab4243" stroke-width=".26458"/>
 </g>
</svg>
