<?xml version="1.0" encoding="UTF-8"?>
<!-- Created with Inkscape (http://www.inkscape.org/) -->
<svg width="8.0081mm" height="8.8638mm" version="1.1" viewBox="0 0 8.0081 8.8638" xmlns="http://www.w3.org/2000/svg">
 <g transform="translate(-101.97 -155.13)" fill="none" stroke="#025">
  <path transform="scale(.26458)" d="m386.34 589.91v26.32a2.6458 2.6458 45 0 0 2.6458 2.6458h23.085a2.6458 2.6458 135 0 0 2.6458-2.6458v-18.091a6.3876 6.3876 67.5 0 0-1.8709-4.5167l-4.4867-4.4867a6.3876 6.3876 22.5 0 0-4.5167-1.8709h-14.857a2.6458 2.6458 135 0 0-2.6458 2.6458z" stroke-linecap="square" stroke-width="1.8898" style="paint-order:fill markers stroke"/>
  <g stroke-width=".5">
   <path d="m103.41 157.48h2.8336"/>
   <path d="m103.41 158.97h5.1689"/>
   <path d="m103.41 160.47h5.1689"/>
   <path d="m103.41 161.96h5.1689"/>
  </g>
 </g>
</svg>
