<?xml version="1.0" encoding="UTF-8"?>
<!-- Created with Inkscape (http://www.inkscape.org/) -->
<svg width="25.921mm" height="22.2mm" version="1.1" viewBox="0 0 25.921 22.2" xmlns="http://www.w3.org/2000/svg">
  <g transform="translate(-28.385 -140.33)" stroke-width=".26458">
    <path fill="#aab8c2"
      d="m35.141 156.91c-5.1727-5.1207-5.7288-5.759-6.2324-7.1536-0.99299-2.7498-0.54621-5.7719 1.1171-7.5564 0.96476-1.035 2.5733-1.6984 4.4441-1.8327 2.1757-0.15619 3.2204 0.17729 5.2607 1.6792l1.5897 1.1703 1.5591-1.1477c0.8575-0.63126 2.1105-1.3021 2.7845-1.4908 1.5786-0.44198 3.9802-0.22478 5.3734 0.48597 3.8625 1.9705 4.3947 7.4088 1.1041 11.282-1.8418 2.1678-10.374 10.186-10.838 10.186-0.2735 0-2.9419-2.4348-6.1618-5.6224z" />
  </g>
</svg>