<?xml version="1.0" encoding="UTF-8"?>
<!-- Created with Inkscape (http://www.inkscape.org/) -->
<svg width="20.373mm" height="5.5562mm" version="1.1" viewBox="0 0 20.373 5.5562" xmlns="http://www.w3.org/2000/svg">
  <g fill="#aab8c2" transform="translate(-71.511 -147.71)" stroke-width=".26458">
    <path
      d="m86.744 152.85c-0.30263-0.30263-0.41578-0.94551-0.41578-2.3623 0-2.5383 0.23155-2.7781 2.6821-2.7781 2.7614 0 2.8741 0.10898 2.8741 2.7781s-0.11275 2.7781-2.8741 2.7781c-1.3296 0-1.9676-0.11706-2.2664-0.41577z" />
    <path
      d="m79.335 152.85c-0.30262-0.30263-0.41577-0.94551-0.41577-2.3623 0-2.5383 0.23155-2.7781 2.6821-2.7781 2.7614 0 2.8741 0.10898 2.8741 2.7781s-0.11275 2.7781-2.8741 2.7781c-1.3296 0-1.9676-0.11706-2.2664-0.41577z" />
    <path
      d="m71.927 152.85c-0.30262-0.30263-0.41577-0.94551-0.41577-2.3623 0-2.5383 0.23154-2.7781 2.6821-2.7781 2.7614 0 2.8741 0.10898 2.8741 2.7781s-0.11276 2.7781-2.8741 2.7781c-1.3296 0-1.9676-0.11706-2.2664-0.41577z" />
  </g>
</svg>