<?xml version="1.0" encoding="UTF-8"?>
<!-- Created with Inkscape (http://www.inkscape.org/) -->
<svg width="25.943mm" height="23.027mm" version="1.1" viewBox="0 0 25.943 23.027" xmlns="http://www.w3.org/2000/svg">
  <g transform="translate(-28.355 -111.77)" stroke-width=".26458">
    <path fill="#aab8c2"
      d="m51.109 132.41c0-5.938-1.9078-7.9848-7.9581-8.5378-1.6706-0.15269-3.5697-0.23972-4.2203-0.1934l-1.183 0.0842-0.1323 2.0893c-0.21678 3.4237-0.33222 3.3918-5.1582-1.4267-2.2562-2.2527-4.1022-4.2773-4.1022-4.4991 0-0.22186 1.7682-2.1686 3.9294-4.3262 3.1914-3.1861 4.0486-3.906 4.5641-3.8331 0.60276 0.0852 0.63849 0.19751 0.71089 2.2344l0.0762 2.1447 3.8925 0.15678c5.1191 0.20617 7.8218 0.97217 9.9151 2.8101 3.2876 2.8866 3.7795 8.3816 1.2496 13.961-1.1232 2.477-1.5837 2.2839-1.5837-0.66427z" />
  </g>
</svg>