<?xml version="1.0" encoding="UTF-8"?>
<!-- Created with Inkscape (http://www.inkscape.org/) -->
<svg width="27.689mm" height="16.669mm" version="1.1" viewBox="0 0 27.689 16.669" xmlns="http://www.w3.org/2000/svg">
  <g fill="#aab8c2" transform="translate(-71.558 -116.23)" stroke-width=".26458">
    <path
      d="m90.703 129.84c-3.1797-3.7938-3.235-4.1875-0.60486-4.3027l1.7859-0.0782v-5.532h-8.6402l-1.2349-1.5213c-0.67917-0.83675-1.2354-1.6702-1.2362-1.8521-1e-3 -0.25674 1.656-0.33073 7.407-0.33073h7.4083v9.2362l1.7859 0.0782c1.6307 0.0714 1.7934 0.13072 1.8716 0.6822 0.10997 0.77516-4.7446 6.672-5.4927 6.672-0.30405 0-1.4714-1.1679-3.0501-3.0516z" />
    <path
      d="m75.215 128.28v-4.6181l-1.7859-0.0782c-1.6143-0.0707-1.794-0.13459-1.8693-0.66469-0.10789-0.7588 4.7898-6.6896 5.5243-6.6896 0.74812 0 5.6026 5.8969 5.4927 6.672-0.0782 0.55147-0.24088 0.61076-1.8716 0.68219l-1.7859 0.0782v5.532h8.6664l1.223 1.4856c0.67266 0.81708 1.223 1.6505 1.223 1.8521 0 0.30352-1.2726 0.36648-7.4083 0.36648h-7.4083z" />
  </g>
</svg>